<svg width="32" height="32" viewBox="0 0 32 32" fill="none" xmlns="http://www.w3.org/2000/svg">
  <rect width="32" height="32" rx="8" fill="#3B82F6"/>
  <path d="M11.5 23V9H17.5C18.9167 9 20.0833 9.35 21 10.05C21.9167 10.75 22.375 11.7667 22.375 13.1C22.375 13.9667 22.1667 14.7 21.75 15.3C21.3333 15.9 20.7667 16.3333 20.05 16.6C20.9167 16.8 21.6333 17.2 22.2 17.8C22.7667 18.4 23.05 19.1667 23.05 20.1C23.05 21.5 22.55 22.5833 21.55 23.35C20.55 24.1167 19.25 24.5 17.65 24.5H11.5V23ZM13.9 15.15H17.25C18.0833 15.15 18.7333 14.9667 19.2 14.6C19.6667 14.2333 19.9 13.7 19.9 13C19.9 12.3 19.6667 11.7833 19.2 11.45C18.7333 11.1167 18.0833 10.95 17.25 10.95H13.9V15.15ZM13.9 22.55H17.45C18.35 22.55 19.0667 22.3333 19.6 21.9C20.1333 21.4667 20.4 20.9 20.4 20.2C20.4 19.5 20.1333 18.9333 19.6 18.5C19.0667 18.0667 18.35 17.85 17.45 17.85H13.9V22.55Z" fill="white"/>
</svg>
